# xmcd
#
# Track frame offsets:
#	150
#	14090
#	31257
#	47045
#	57947
#	72710
#	88415
#	101355
#	117030
#	132007
#	147915
#
# Disc length: 2144 seconds
#
# Revision: 0
# Processed by: cddbd v1.5.2PL0 Copyright (c) Steve Scherf et al.
# Submitted via: dBpowerAMP V4.0
#
DISCID=9c085e0b
DTITLE=The Mavens - The Mavens
DYEAR=2009
DGENRE=Country
TTITLE0=Invitation to the Blues
TTITLE1=It Still Hurts
TTITLE2=Cold Hearted Woman
TTITLE3=Stuck Between a Rock and a Heartache
TTITLE4=No Room
TTITLE5=Different Drum
TTITLE6=The Big Hurt
TTITLE7=Mombo Jombo Queen
TTITLE8=Miving 'Round This World
TTITLE9=Riding My Thumb to Mexico
TTITLE10=Lips, Hips, and Poker Chips
EXTD=
EXTT0=
EXTT1=
EXTT2=
EXTT3=
EXTT4=
EXTT5=
EXTT6=
EXTT7=
EXTT8=
EXTT9=
EXTT10=
PLAYORDER=
